<svg width="9" height="10" viewBox="0 0 9 10" fill="none" xmlns="http://www.w3.org/2000/svg">
<path fill-rule="evenodd" clip-rule="evenodd" d="M1.42683 5.11111C1.24498 5.11111 1.09756 5.26035 1.09756 5.44444V8.55556C1.09756 8.73965 1.24498 8.88889 1.42683 8.88889H7.57317C7.75502 8.88889 7.90244 8.73965 7.90244 8.55556V5.44444C7.90244 5.26035 7.75502 5.11111 7.57317 5.11111H1.42683ZM0 5.44444C0 4.6467 0.638813 4 1.42683 4H7.57317C8.36119 4 9 4.6467 9 5.44444V8.55556C9 9.3533 8.36119 10 7.57317 10H1.42683C0.638813 10 0 9.3533 0 8.55556V5.44444Z" fill="white"/>
<path fill-rule="evenodd" clip-rule="evenodd" d="M4.5 1.08696C4.10218 1.08696 3.72064 1.25873 3.43934 1.5645C3.15804 1.87027 3 2.28497 3 2.71739V4.45652C3 4.75668 2.77614 5 2.5 5C2.22386 5 2 4.75668 2 4.45652V2.71739C2 1.99669 2.26339 1.30552 2.73223 0.795905C3.20107 0.286296 3.83696 0 4.5 0C5.16304 0 5.79893 0.286296 6.26777 0.795905C6.73661 1.30552 7 1.99669 7 2.71739V4.45652C7 4.75668 6.77614 5 6.5 5C6.22386 5 6 4.75668 6 4.45652V2.71739C6 2.28497 5.84196 1.87027 5.56066 1.5645C5.27936 1.25873 4.89782 1.08696 4.5 1.08696Z" fill="white"/>
</svg>
